<svg width="16" height="22" viewBox="0 0 16 22" fill="none" xmlns="http://www.w3.org/2000/svg">
<path d="M0.111022 11.2091C-1.08333 5.00169 7.65289 1.18867 12.1934 0C10.4622 1.14995 6.2611 3.94931 4.72874 6.21436C3.92403 7.30235 2.63563 9.98844 3.26364 12.1616C3.51054 13.1954 4.55521 15.1259 6.99021 14.5776C9.42521 14.0294 9.69834 12.359 8.46688 11.5692C7.50399 11.0395 6.82349 11.7434 6.60359 12.1616C4.53894 10.238 6.09822 8.16967 7.13596 7.37592C9.83944 5.48955 12.6726 6.72545 13.7142 7.45723C15.2713 8.55117 17.4408 11.7202 14.6632 15.774C12.4412 19.0171 6.5667 21.396 3.83073 22C7.90449 19.3516 9.31001 18.0025 9.58948 17.7254C14.6864 12.6727 13.1934 8.08448 10.5616 7.37592C8.05494 6.80676 6.09907 8.81626 6.60359 10.5121C6.68931 9.54805 8.8072 8.64203 10.0803 10.5702C10.567 11.3717 10.8888 13.3673 8.46688 14.8448C3.81446 17.3421 0.535661 13.4161 0.111022 11.2091Z" fill="white"/>
</svg>
