<svg width="30" height="30" viewBox="0 0 30 30" fill="none" xmlns="http://www.w3.org/2000/svg">
<circle cx="15" cy="15" r="15" fill="white" fill-opacity="0.1"/>
<path d="M15.0004 12.125L14.2545 13.4267C14.0871 13.7137 14.2266 13.9516 14.5542 13.9516H15.4396C15.7742 13.9516 15.9067 14.1896 15.7394 14.4765L15.0004 15.7783M12.5604 22C14.1569 21.5451 15.8439 21.5451 17.4404 22M12.421 19.2286V18.4167C10.8176 17.4439 9.5 15.5473 9.5 13.5317C9.5 10.0674 12.672 7.35199 16.2552 8.13583C17.8308 8.48576 19.2111 9.53554 19.9291 10.9842C21.3861 13.9236 19.8525 17.045 17.6007 18.4097V19.2216C17.6007 19.4245 17.6774 19.8934 16.9315 19.8934H13.0902C12.3234 19.9004 12.421 19.5995 12.421 19.2286Z" stroke="white" stroke-opacity="0.75" stroke-width="1.5" stroke-linecap="round" stroke-linejoin="round"/>
</svg>
