<svg width="30" height="30" viewBox="0 0 30 30" fill="none" xmlns="http://www.w3.org/2000/svg">
<circle cx="15" cy="15" r="15" fill="white" fill-opacity="0.1"/>
<path d="M10.65 13.8C10.65 14.2142 10.9858 14.55 11.4 14.55C11.8142 14.55 12.15 14.2142 12.15 13.8H10.65ZM17.85 13.8C17.85 14.2142 18.1858 14.55 18.6 14.55C19.0142 14.55 19.35 14.2142 19.35 13.8H17.85ZM18 20.2499H12V21.7499H18V20.2499ZM12 20.2499C10.7946 20.2499 10.3418 20.0811 10.1303 19.8696C9.91884 19.6581 9.75 19.2053 9.75 17.9999H8.25C8.25 19.1946 8.38116 20.2418 9.06967 20.9303C9.75818 21.6188 10.8054 21.7499 12 21.7499V20.2499ZM9.75 17.9999V16.7999H8.25V17.9999H9.75ZM9.75 16.7999C9.75 15.5946 9.91884 15.1418 10.1303 14.9303C10.3418 14.7188 10.7946 14.5499 12 14.5499V13.0499C10.8054 13.0499 9.75818 13.1811 9.06967 13.8696C8.38116 14.5581 8.25 15.6053 8.25 16.7999H9.75ZM12 14.5499H18V13.0499H12V14.5499ZM18 14.5499C19.2054 14.5499 19.6582 14.7188 19.8697 14.9303C20.0812 15.1418 20.25 15.5946 20.25 16.7999H21.75C21.75 15.6053 21.6188 14.5581 20.9303 13.8696C20.2418 13.1811 19.1946 13.0499 18 13.0499V14.5499ZM20.25 16.7999V17.9999H21.75V16.7999H20.25ZM20.25 17.9999C20.25 19.2053 20.0812 19.6581 19.8697 19.8696C19.6582 20.0811 19.2054 20.2499 18 20.2499V21.7499C19.1946 21.7499 20.2418 21.6188 20.9303 20.9303C21.6188 20.2418 21.75 19.1946 21.75 17.9999H20.25ZM12.15 13.8V12.6H10.65V13.8H12.15ZM12.15 12.6C12.15 11.6519 12.3003 10.9711 12.6591 10.5257C12.9896 10.1154 13.6284 9.75 15 9.75V8.25C13.3716 8.25 12.2104 8.69161 11.4909 9.58476C10.7997 10.4429 10.65 11.5621 10.65 12.6H12.15ZM15 9.75C16.3716 9.75 17.0104 10.1154 17.3409 10.5257C17.6997 10.9711 17.85 11.6519 17.85 12.6H19.35C19.35 11.5621 19.2003 10.4429 18.5091 9.58476C17.7896 8.69161 16.6284 8.25 15 8.25V9.75ZM17.85 12.6V13.8H19.35V12.6H17.85Z" fill="white" fill-opacity="0.75"/>
</svg>
