<svg width="30" height="30" viewBox="0 0 30 30" fill="none" xmlns="http://www.w3.org/2000/svg">
<circle cx="15" cy="15" r="15" fill="white" fill-opacity="0.1"/>
<path d="M7.11102 15.2091C5.91667 9.00169 14.6529 5.18867 19.1934 4C17.4622 5.14995 13.2611 7.94931 11.7287 10.2144C10.924 11.3024 9.63563 13.9884 10.2636 16.1616C10.5105 17.1954 11.5552 19.1259 13.9902 18.5776C16.4252 18.0294 16.6983 16.359 15.4669 15.5692C14.504 15.0395 13.8235 15.7434 13.6036 16.1616C11.5389 14.238 13.0982 12.1697 14.136 11.3759C16.8394 9.48955 19.6726 10.7254 20.7142 11.4572C22.2713 12.5512 24.4408 15.7202 21.6632 19.774C19.4412 23.0171 13.5667 25.396 10.8307 26C14.9045 23.3516 16.31 22.0025 16.5895 21.7254C21.6864 16.6727 20.1934 12.0845 17.5616 11.3759C15.0549 10.8068 13.0991 12.8163 13.6036 14.5121C13.6893 13.548 15.8072 12.642 17.0803 14.5702C17.567 15.3717 17.8888 17.3673 15.4669 18.8448C10.8145 21.3421 7.53566 17.4161 7.11102 15.2091Z" fill="white"/>
</svg>
