<svg width="30" height="30" viewBox="0 0 30 30" fill="none" xmlns="http://www.w3.org/2000/svg">
<circle cx="15" cy="15" r="15" fill="white" fill-opacity="0.1"/>
<path d="M13.5 20.4444C13.5 21.3 14.175 22 15 22C15.825 22 16.5 21.3 16.5 20.4444C16.5 19.5889 15.825 18.8889 15 18.8889C14.175 18.8889 13.5 19.5889 13.5 20.4444Z" fill="white" fill-opacity="0.75"/>
<path d="M13.5 14.9999C13.5 15.8555 14.175 16.5555 15 16.5555C15.825 16.5555 16.5 15.8555 16.5 14.9999C16.5 14.1444 15.825 13.4443 15 13.4443C14.175 13.4443 13.5 14.1444 13.5 14.9999Z" fill="white" fill-opacity="0.75"/>
<path d="M13.5 9.55557C13.5 10.4111 14.175 11.1111 15 11.1111C15.825 11.1111 16.5 10.4111 16.5 9.55557C16.5 8.7 15.825 8 15 8C14.175 8 13.5 8.7 13.5 9.55557Z" fill="white" fill-opacity="0.75"/>
</svg>
