<svg width="24" height="24" viewBox="0 0 24 24" fill="none" xmlns="http://www.w3.org/2000/svg">
<path d="M18.754 22.582C17.786 22.868 16.642 23 15.3 23H8.7C7.358 23 6.214 22.868 5.246 22.582M18.754 22.582C18.512 19.722 15.575 17.467 12 17.467C8.425 17.467 5.488 19.722 5.246 22.582M18.754 22.582C21.746 21.735 23 19.458 23 15.3V8.7C23 3.2 20.8 1 15.3 1H8.7C3.2 1 1 3.2 1 8.7V15.3C1 19.458 2.254 21.735 5.246 22.582M12 14.387C9.822 14.387 8.062 12.616 8.062 10.438C8.062 8.26002 9.822 6.5 12 6.5C14.178 6.5 15.938 8.26002 15.938 10.438C15.938 12.616 14.178 14.387 12 14.387Z" stroke="white" stroke-opacity="0.25" stroke-width="2" stroke-linecap="round" stroke-linejoin="round"/>
</svg>
