<svg width="24" height="24" viewBox="0 0 24 24" fill="none" xmlns="http://www.w3.org/2000/svg">
<path d="M17.5 9.8H19.7C21.9 9.8 23 8.7 23 6.5V4.3C23 2.1 21.9 1 19.7 1H17.5C15.3 1 14.2 2.1 14.2 4.3V6.5C14.2 8.7 15.3 9.8 17.5 9.8Z" stroke="white" stroke-opacity="0.25" stroke-width="2" stroke-miterlimit="10" stroke-linecap="round" stroke-linejoin="round"/>
<path d="M4.3 23H6.5C8.7 23 9.8 21.9 9.8 19.7V17.5C9.8 15.3 8.7 14.2 6.5 14.2H4.3C2.1 14.2 1 15.3 1 17.5V19.7C1 21.9 2.1 23 4.3 23Z" stroke="white" stroke-opacity="0.25" stroke-width="2" stroke-miterlimit="10" stroke-linecap="round" stroke-linejoin="round"/>
<path d="M5.4 9.8C7.83005 9.8 9.8 7.83005 9.8 5.4C9.8 2.96995 7.83005 1 5.4 1C2.96995 1 1 2.96995 1 5.4C1 7.83005 2.96995 9.8 5.4 9.8Z" stroke="white" stroke-opacity="0.25" stroke-width="2" stroke-miterlimit="10" stroke-linecap="round" stroke-linejoin="round"/>
<path d="M18.6 23C21.0301 23 23 21.0301 23 18.6C23 16.1699 21.0301 14.2 18.6 14.2C16.1699 14.2 14.2 16.1699 14.2 18.6C14.2 21.0301 16.1699 23 18.6 23Z" stroke="white" stroke-opacity="0.25" stroke-width="2" stroke-miterlimit="10" stroke-linecap="round" stroke-linejoin="round"/>
</svg>
